<?xml version="1.0" encoding="UTF-8"?>
<svg width="128px" height="128px" viewBox="0 0 128 128" version="1.1" xmlns="http://www.w3.org/2000/svg" xmlns:xlink="http://www.w3.org/1999/xlink">
    <title>Artboard Copy</title>
    <g id="Artboard-Copy" stroke="none" stroke-width="1" fill="none" fill-rule="evenodd">
        <path d="M110.517822,17.4821779 C112.494059,19.4584151 112.494059,22.6625287 110.517822,24.6387659 L71.156,64 L110.517822,103.361234 L110.687067,103.538732 C112.49235,105.524886 112.435935,108.59971 110.517822,110.517822 C108.541585,112.494059 105.337471,112.494059 103.361234,110.517822 L103.361234,110.517822 L64,71.156 L24.6387659,110.517822 C22.6625287,112.494059 19.4584151,112.494059 17.4821779,110.517822 C15.5640653,108.59971 15.5076502,105.524886 17.3129327,103.538732 L17.4821779,103.361234 L56.844,64 L17.4821779,24.6387659 C15.5640653,22.7206533 15.5076502,19.6458302 17.3129327,17.6596758 L17.4821779,17.4821779 C19.4584151,15.5059407 22.6625287,15.5059407 24.6387659,17.4821779 L24.6387659,17.4821779 L64,56.844 L103.361234,17.4821779 C105.337471,15.5059407 108.541585,15.5059407 110.517822,17.4821779 Z" id="Combined-Shape" fill="#5C5C5C"></path>
    </g>
</svg>