<svg xmlns="http://www.w3.org/2000/svg" width="16" height="15" viewBox="0 0 16 15">
    <path fill="#5C5C5C" fill-rule="evenodd" d="M.243.235c.336-.315.858-.315 1.194 0L8 6.382 14.563.235c.336-.315.858-.315 1.194 0 .308.289.324.774.035 1.082l-.035.036L9.193 7.5l6.564 6.147.018.018.017.018c.29.308.273.793-.035 1.082-.336.315-.858.315-1.194 0L8 8.617l-6.562 6.148c-.336.315-.858.315-1.194 0-.308-.289-.324-.774-.035-1.082l.017-.018.018-.018L6.806 7.5.243 1.353l-.018-.018-.017-.018C-.082 1.01-.065.524.243.235z"/>
</svg>
