<svg xmlns="http://www.w3.org/2000/svg" width="27" height="31" viewBox="0 0 27 31">
    <g fill="#004E99">
        <path d="M13.226 5.126L8.152.04l-1.3 1.297L8.996 3.48C3.753 4.51-.02 9.114 0 14.456h1.836c-.033-5.107 4.07-9.28 9.178-9.33h2.212zM26.884 16.219h-1.836c.033 5.107-4.07 9.28-9.178 9.33h-2.212l5.074 5.086 1.3-1.298-2.138-2.142c5.24-1.032 9.01-5.636 8.99-10.976z"/>
        <path d="M16.66 13.685c-.729 0-1.321-.593-1.321-1.32 0-2.582-2.1-4.682-4.682-4.682-2.581 0-4.682 2.1-4.682 4.681 0 2.854 1.112 5.537 3.13 7.555 2.017 2.018 4.7 3.13 7.554 3.13 2.582 0 4.682-2.101 4.682-4.683 0-2.581-2.1-4.681-4.682-4.681z"/>
    </g>
</svg>
