<svg xmlns="http://www.w3.org/2000/svg" width="189" height="182" viewBox="0 0 189 182">
    <g fill="none" fill-rule="evenodd">
        <text fill="#D2E7FF" font-family="Merel-Black, Merel" font-size="88.2" font-weight="700" transform="translate(-2 -25)">
            <tspan x="0" y="84">2</tspan>
        </text>
        <g fill-rule="nonzero">
            <path fill="#004E99" d="M80.011 36.863H43.147c-1.357 0-2.459-1.098-2.459-2.456V20.89C40.688 9.373 50.06 0 61.578 0c11.519 0 20.89 9.373 20.89 20.89v13.517c0 1.358-1.1 2.456-2.457 2.456zM45.605 31.95h31.948v-11.06c0-8.808-7.166-15.974-15.975-15.974-8.807 0-15.973 7.166-15.973 15.975v11.059z" transform="translate(-2 -25) translate(29.7 27)"/>
            <path fill="#2A8EE6" d="M115.646 46.695L7.512 46.695 14.884 34.407 108.273 34.407z" transform="translate(-2 -25) translate(29.7 27)"/>
            <path fill="#004E99" d="M115.646 49.195H7.512c-.901 0-1.734-.485-2.177-1.27-.444-.782-.433-1.744.033-2.517L12.74 33.12c.45-.754 1.265-1.214 2.143-1.214h93.389c.879 0 1.693.46 2.144 1.214l7.373 12.288c.464.773.477 1.735.033 2.518-.445.784-1.276 1.269-2.177 1.269zm-103.718-5h99.3l-4.371-7.288H16.3l-4.372 7.287z" transform="translate(-2 -25) translate(29.7 27)"/>
            <path fill="#D2E7FF" d="M69.915 16.223L103.416 24.057 95.022 59.951 61.521 52.117z" transform="translate(-2 -25) translate(29.7 27)"/>
            <path fill="#004E99" d="M95.022 62.416c-.187 0-.374-.02-.56-.064l-33.501-7.836c-1.322-.31-2.143-1.631-1.834-2.952l8.395-35.897c.15-.636.543-1.185 1.097-1.529.553-.343 1.222-.452 1.855-.305l33.501 7.837c1.324.31 2.143 1.632 1.834 2.952l-8.395 35.896c-.148.637-.542 1.187-1.097 1.529-.392.243-.841.37-1.295.37zM64.474 50.29l28.714 6.718 7.276-31.112-28.716-6.718-7.274 31.112z" transform="translate(-2 -25) translate(29.7 27)"/>
            <path fill="#94C1FF" d="M17.097 14.785L58.202 9.925 63.408 53.966 22.303 58.826z" transform="translate(-2 -25) translate(29.7 27)"/>
            <path fill="#004E99" d="M22.296 61.284c-1.228 0-2.29-.92-2.437-2.17l-5.206-44.039c-.076-.648.108-1.3.512-1.81.402-.512.993-.842 1.641-.92l41.105-4.857c1.329-.166 2.57.805 2.728 2.153l5.206 44.04c.077.648-.108 1.3-.51 1.81-.404.511-.995.842-1.643.92l-41.105 4.856c-.095.012-.192.017-.29.017zM19.824 16.94l4.628 39.157 36.223-4.28-4.627-39.16-36.224 4.283z" transform="translate(-2 -25) translate(29.7 27)"/>
            <path fill="#2A8EE6" d="M35.457 35.571L75.049 26.051 85.068 67.719 45.477 77.24z" transform="translate(-2 -25) translate(29.7 27)"/>
            <path fill="#004E99" d="M45.475 79.74c-.458 0-.91-.125-1.306-.367-.567-.349-.97-.906-1.125-1.548l-10.02-41.669c-.156-.647-.047-1.327.298-1.891.346-.567.903-.972 1.549-1.127l39.591-9.517c1.342-.324 2.695.503 3.015 1.845l10.021 41.667c.156.645.048 1.325-.298 1.89-.346.567-.903.973-1.548 1.126L46.06 79.67c-.194.05-.39.071-.585.071zm-7.001-42.322l8.848 36.804 34.727-8.352L73.2 29.07l-34.725 8.348z" transform="translate(-2 -25) translate(29.7 27)"/>
            <path fill="#D2E7FF" d="M120.561 142.54L2.596 142.54 7.512 46.695 115.646 46.695z" transform="translate(-2 -25) translate(29.7 27)"/>
            <path fill="#004E99" d="M120.56 144.998H2.597c-.674 0-1.318-.275-1.782-.765-.462-.488-.706-1.144-.672-1.816l4.916-95.848c.066-1.307 1.145-2.333 2.454-2.333h108.134c1.308 0 2.386 1.026 2.454 2.333l4.915 95.848c.035.672-.209 1.328-.673 1.816-.462.49-1.108.765-1.781.765zM5.184 140.084h112.792l-4.665-90.931H9.847l-4.664 90.93z" transform="translate(-2 -25) translate(29.7 27)"/>
            <path fill="#D2E7FF" d="M84.926 61.44c0 2.715-2.2 4.915-4.915 4.915s-4.916-2.2-4.916-4.915 2.2-4.916 4.916-4.916c2.714 0 4.915 2.201 4.915 4.916z" transform="translate(-2 -25) translate(29.7 27)"/>
            <path fill="#004E99" d="M80.011 68.813c-4.065 0-7.373-3.307-7.373-7.373 0-4.065 3.308-7.372 7.373-7.372 4.066 0 7.372 3.307 7.372 7.372 0 4.066-3.306 7.373-7.372 7.373zm0-9.83c-1.355 0-2.458 1.1-2.458 2.457 0 1.356 1.103 2.457 2.458 2.457 1.355 0 2.457-1.1 2.457-2.457 0-1.357-1.102-2.458-2.457-2.458z" transform="translate(-2 -25) translate(29.7 27)"/>
            <path fill="#D2E7FF" d="M48.061 61.44c0 2.715-2.2 4.915-4.914 4.915-2.715 0-4.915-2.2-4.915-4.915s2.2-4.916 4.915-4.916c2.714 0 4.914 2.201 4.914 4.916z" transform="translate(-2 -25) translate(29.7 27)"/>
            <g fill="#004E99">
                <path d="M43.147 14.813c-4.066 0-7.373-3.307-7.373-7.373 0-4.065 3.307-7.373 7.373-7.373 4.065 0 7.373 3.308 7.373 7.373 0 4.066-3.308 7.373-7.373 7.373zm0-9.83c-1.355 0-2.459 1.1-2.459 2.457 0 1.356 1.104 2.457 2.459 2.457 1.354 0 2.458-1.1 2.458-2.457 0-1.357-1.104-2.458-2.458-2.458z" transform="translate(-2 -25) translate(29.7 27) translate(0 54)"/>
                <path d="M61.578 44.304c-11.518 0-20.89-9.373-20.89-20.89V9.897c0-1.358 1.102-2.457 2.459-2.457s2.458 1.099 2.458 2.457v13.517c0 8.809 7.166 15.975 15.973 15.975 8.809 0 15.975-7.166 15.975-15.975V10.55c-.062-.207-.094-.426-.094-.653 0-1.358 1.006-2.457 2.363-2.457h.19c1.356 0 2.456 1.099 2.456 2.457v13.517c0 11.517-9.371 20.89-20.89 20.89zM2.596 88.54L120.561 88.54 120.184 81.167 2.974 81.167z" transform="translate(-2 -25) translate(29.7 27) translate(0 54)"/>
                <path d="M120.56 90.998H2.597c-.674 0-1.318-.275-1.782-.765-.462-.488-.706-1.144-.672-1.816l.378-7.373c.068-1.308 1.146-2.333 2.454-2.333h117.21c1.308 0 2.386 1.025 2.454 2.333l.377 7.373c.035.672-.209 1.328-.673 1.816-.462.49-1.108.765-1.781.765zM5.184 86.084h112.792l-.127-2.459H5.31l-.127 2.459z" transform="translate(-2 -25) translate(29.7 27) translate(0 54)"/>
            </g>
            <path fill="#FFF" d="M13.656 66.355c-1.358 0-2.458-1.1-2.458-2.458v-9.83c0-1.358 1.1-2.458 2.458-2.458h8.082c1.357 0 2.457 1.1 2.457 2.459 0 1.358-1.1 2.456-2.457 2.456h-5.625v7.373c0 1.359-1.1 2.458-2.457 2.458z" transform="translate(-2 -25) translate(29.7 27)"/>
        </g>
        <g transform="translate(-2 -25) translate(42.3 150.3)">
            <rect width="148.5" height="38.7" x="-2.25" y="-2.25" fill="#E7131A" stroke="#FFF" stroke-width="4.5" rx="3.6"/>
            <g fill="#FFF">
                <text font-family="Merel-Bold, Merel" font-size="9.331" font-weight="bold" transform="translate(3.6 8.1) translate(20.444 3.629)">
                    <tspan x=".929" y="9">CREATE SUBSCRIPTION</tspan>
                </text>
                <g fill-rule="nonzero">
                    <path d="M8.032 3.113L4.95.024l-.79.788 1.301 1.301C2.28 2.74-.012 5.535 0 8.78h1.115c-.02-3.102 2.472-5.635 5.574-5.666h1.343zM16.326 9.85h-1.114c.02 3.101-2.473 5.635-5.574 5.665H8.294l3.082 3.09.789-.789-1.298-1.3c3.182-.627 5.472-3.423 5.46-6.666z" transform="translate(3.6 8.1)"/>
                    <path d="M10.117 8.31c-.442 0-.802-.36-.802-.801 0-1.568-1.275-2.843-2.843-2.843S3.629 5.94 3.629 7.509c0 1.733.675 3.362 1.9 4.587 1.226 1.226 2.855 1.9 4.588 1.9 1.568 0 2.843-1.275 2.843-2.842 0-1.568-1.275-2.843-2.843-2.843z" transform="translate(3.6 8.1)"/>
                </g>
            </g>
        </g>
        <g>
            <path fill="#D2E7FF" d="M31.529 21.055L21.71 28.559 24.858 37.128 20.561 40.148 12.792 32.368 3.418 37.128 2.047 5.558 6.043 2.52z" transform="translate(-2 -25) translate(146 164)"/>
            <path fill="#004E99" fill-rule="nonzero" d="M20.937 42.61c-2.26 0-4.44-1.262-5.491-3.408l-3.04-5.691-1.724 3.291c-.044.085-.095.166-.15.243-1.132 1.57-2.994 2.129-4.372 2.129h-.034c-1.54-.01-3.074-.671-4.208-1.814C.74 36.173.092 34.598.092 32.924V6.822c0-2.381 1.341-4.483 3.5-5.486C5.731.343 8.176.66 9.99 2.158l13.28 9.89c.893.664 1.078 1.927.413 2.82-.665.893-1.928 1.078-2.821.413L7.537 5.358c-.033-.025-.065-.05-.097-.077-.912-.77-1.876-.415-2.15-.288-.273.127-1.166.635-1.166 1.829v26.102c0 1.3 1.069 2.212 2.029 2.218h.01c.392 0 .823-.163 1.038-.383l3.403-6.495c.346-.662 1.03-1.078 1.777-1.08h.008c.744 0 1.428.409 1.779 1.066l4.853 9.087.04.078c.483 1.008 1.703 1.447 2.718.977.505-.234.886-.651 1.073-1.175.182-.508.159-1.054-.064-1.543l-4.899-8.717c-.35-.624-.344-1.388.018-2.006.362-.618 1.024-.998 1.74-.998h6.912c1.17-.06 1.636-.98 1.752-1.264.12-.29.442-1.306-.392-2.191-.764-.81-.727-2.086.083-2.85.81-.764 2.086-.726 2.85.084 1.654 1.754 2.11 4.24 1.19 6.486-.914 2.233-2.97 3.676-5.365 3.766l-.075.001h-3.51l3.246 5.775c.02.036.039.072.056.108.72 1.483.81 3.154.256 4.705-.555 1.552-1.683 2.787-3.178 3.478-.82.379-1.683.558-2.535.558z" transform="translate(-2 -25) translate(146 164)"/>
        </g>
    </g>
</svg>
