<svg xmlns="http://www.w3.org/2000/svg" width="152" height="173" viewBox="0 0 152 173">
    <g fill="none" fill-rule="evenodd">
        <text fill="#D2E7FF" font-family="Merel-Black, Merel" font-size="88.2" font-weight="700" transform="translate(-2 -26)">
            <tspan x="0" y="84">1</tspan>
        </text>
        <g>
            <path fill="#FFF" d="M3.6 4.5H99.89999999999999V139.5H3.6z" transform="translate(-2 -26) translate(25 41)"/>
            <g fill-rule="nonzero">
                <path fill="#004E99" d="M93.842 142.713H9.53c-5.213 0-9.453-4.24-9.453-9.453V9.627C.077 4.413 4.317.173 9.53.173h84.313c5.212 0 9.453 4.24 9.453 9.454V133.26c0 5.213-4.241 9.453-9.454 9.453zM9.53 5.088c-2.503 0-4.538 2.035-4.538 4.54V133.26c0 2.504 2.035 4.538 4.538 4.538h84.313c2.503 0 4.538-2.034 4.538-4.538V9.627c0-2.503-2.035-4.54-4.538-4.54H9.53z" transform="translate(-2 -26) translate(25 41)"/>
                <path fill="#D2E7FF" d="M10.008 7.125h83.7c1.491 0 2.7 1.21 2.7 2.7v123.3c0 1.492-1.209 2.7-2.7 2.7h-83.7c-1.49 0-2.7-1.208-2.7-2.7V9.825c0-1.49 1.21-2.7 2.7-2.7z" transform="translate(-2 -26) translate(25 41)"/>
                <g fill="#004E99">
                    <path d="M56.526 14.748H31.95c-1.358 0-2.458-1.1-2.458-2.458s1.1-2.458 2.458-2.458h24.576c1.358 0 2.458 1.1 2.458 2.458 0 1.359-1.1 2.458-2.458 2.458zM9.831 22.12c-.48 0-.955-.14-1.362-.412l-7.373-4.915c-1.131-.755-1.436-2.278-.682-3.409.752-1.13 2.272-1.436 3.408-.68l4.915 3.275 6.209-14.486C15.48.243 16.93-.337 18.172.2c1.247.535 1.826 1.98 1.29 3.225L12.09 20.63c-.289.672-.86 1.181-1.557 1.39-.23.067-.467.1-.702.1zM56.526 46.697H31.95c-1.358 0-2.458-1.1-2.458-2.458 0-1.359 1.1-2.458 2.458-2.458h24.576c1.358 0 2.458 1.1 2.458 2.458s-1.1 2.458-2.458 2.458zM9.831 54.07c-.48 0-.955-.142-1.362-.414l-7.373-4.915c-1.131-.753-1.436-2.278-.682-3.408.752-1.13 2.272-1.433 3.408-.68l4.915 3.274 6.209-14.486c.534-1.25 1.984-1.83 3.226-1.292 1.247.536 1.826 1.982 1.29 3.226L12.09 52.58c-.289.672-.86 1.18-1.557 1.39-.23.067-.467.1-.702.1zM56.526 78.645H31.95c-1.358 0-2.458-1.1-2.458-2.458s1.1-2.456 2.458-2.456h24.576c1.358 0 2.458 1.098 2.458 2.456 0 1.359-1.1 2.458-2.458 2.458zM9.831 86.018c-.48 0-.955-.142-1.362-.413L1.096 80.69c-1.131-.754-1.436-2.278-.682-3.409.752-1.13 2.272-1.433 3.408-.68l4.915 3.275 6.209-14.486c.534-1.25 1.984-1.83 3.226-1.29 1.247.534 1.826 1.98 1.29 3.224L12.09 84.528c-.289.672-.86 1.181-1.557 1.39-.23.067-.467.1-.702.1z" transform="translate(-2 -26) translate(25 41) translate(19.737 15.504)"/>
                </g>
            </g>
        </g>
        <g fill="#E7131A" fill-rule="nonzero">
            <path d="M32.53 12.608L20.05.098l-3.196 3.191 5.269 5.269C9.232 11.092-.05 22.417 0 35.554h4.515c-.081-12.561 10.013-22.822 22.574-22.946h5.44zM66.122 39.89h-4.515c.081 12.562-10.013 22.823-22.574 22.947h-5.44l12.478 12.51 3.197-3.191-5.258-5.269c12.887-2.538 22.161-13.862 22.112-26.996z" transform="translate(-2 -26) translate(87 123)"/>
            <path stroke="#FFF" stroke-width="4" d="M54.488 45.172c0 3.726-1.515 7.105-3.962 9.553-2.448 2.447-5.827 3.962-9.553 3.962-7.553 0-14.654-2.941-19.994-8.282-5.341-5.34-8.282-12.442-8.282-19.995 0-3.726 1.514-7.105 3.962-9.552 2.447-2.447 5.826-3.962 9.552-3.962s7.106 1.515 9.553 3.962c2.447 2.447 3.962 5.826 3.962 9.552 0 .344.14.656.367.881.225.226.536.367.88.367 3.726 0 7.105 1.514 9.553 3.962 2.447 2.447 3.962 5.826 3.962 9.552z" transform="translate(-2 -26) translate(87 123)"/>
        </g>
    </g>
</svg>
