<svg xmlns="http://www.w3.org/2000/svg" width="180" height="166" viewBox="0 0 180 166">
    <g fill="none" fill-rule="evenodd">
        <text fill="#D2E7FF" font-family="Merel-Black, Merel" font-size="88.2" font-weight="700" transform="translate(-1 -25)">
            <tspan x="0" y="84">3</tspan>
        </text>
        <g transform="translate(-1 -25) translate(116 47)">
            <rect width="41" height="38" y="2" fill="#004E99" rx="6"/>
            <path fill="#94C1FF" d="M2.61 23.307L2.61 7.57 6.565 4.537 34.964 4.537 39.064 8.506 39.064 34.112 34.964 38.212 10.524 38.212z"/>
            <g fill="#004E99" fill-rule="nonzero" transform="matrix(-1 0 0 1 40.192 0)">
                <circle cx="29.669" cy="16.141" r="1.537"/>
                <path d="M33.204 3.074h-1.998V1.537C31.206.688 30.518 0 29.669 0c-.85 0-1.538.688-1.538 1.537v1.537h-6.994V1.537C21.137.688 20.449 0 19.6 0c-.85 0-1.538.688-1.538 1.537v1.537h-6.917V1.537C11.145.688 10.457 0 9.608 0 8.758 0 8.07.688 8.07 1.537v1.537H6.15C2.759 3.074 0 5.833 0 9.224v23.98c0 3.39 2.758 6.15 6.149 6.15h11.76c.849 0 1.537-.69 1.537-1.538 0-.85-.688-1.537-1.537-1.537H6.149c-1.695 0-3.075-1.38-3.075-3.075V9.224c0-1.696 1.38-3.075 3.075-3.075H8.07v1.537c0 .85.689 1.537 1.538 1.537.849 0 1.537-.688 1.537-1.537V6.15h6.917v1.537c0 .85.689 1.537 1.538 1.537.849 0 1.537-.688 1.537-1.537V6.15h6.994v1.537c0 .85.689 1.537 1.538 1.537.849 0 1.537-.688 1.537-1.537V6.15h1.998c1.695 0 3.075 1.38 3.075 3.074v8.763c0 .849.688 1.537 1.537 1.537s1.537-.688 1.537-1.537V9.223c0-3.39-2.758-6.149-6.149-6.149z"/>
                <circle cx="22.982" cy="16.141" r="1.537"/>
                <circle cx="16.295" cy="22.828" r="1.537"/>
                <circle cx="9.608" cy="16.141" r="1.537"/>
                <circle cx="9.608" cy="22.828" r="1.537"/>
                <circle cx="9.608" cy="29.515" r="1.537"/>
                <circle cx="16.295" cy="29.515" r="1.537"/>
                <circle cx="16.295" cy="16.141" r="1.537"/>
            </g>
        </g>
        <g transform="translate(-1 -25) translate(1 102)">
            <rect width="44" height="38" x="23" fill="#004E99" rx="9"/>
            <path fill="#004E99" d="M16 8h11v24H0v-8C0 15.163 7.163 8 16 8z"/>
            <path fill="#004E99" d="M12 46V31H0v3c0 6.627 5.373 12 12 12zM13 35H58V44H13z"/>
            <circle cx="13" cy="41" r="8" fill="#004E99"/>
            <g>
                <path fill="#94C1FF" fill-rule="nonzero" d="M42.053 32.112H2.08V7.888c0-3.57 2.895-6.465 6.465-6.465h27.1c3.57 0 6.465 2.895 6.465 6.465v24.168c0 .03-.025.056-.057.056z" transform="matrix(-1 0 0 1 67 0)"/>
                <path fill="#004E99" fill-rule="nonzero" d="M42.053 33.447H2.08c-.737 0-1.334-.597-1.334-1.335V7.89c0-4.302 3.499-7.8 7.8-7.8h27.098c4.301 0 7.8 3.498 7.8 7.8v24.167c0 .738-.654 1.39-1.39 1.39zm-38.638-2.67h37.36V7.89c0-2.83-2.301-5.132-5.13-5.132h-27.1c-2.83 0-5.13 2.303-5.13 5.132v22.889z" transform="matrix(-1 0 0 1 67 0)"/>
                <path fill="#94C1FF" fill-rule="nonzero" d="M60.02 41.452H2.08v-9.34h62.713v4.567c0 2.637-2.137 4.773-4.773 4.773z" transform="matrix(-1 0 0 1 67 0)"/>
                <path fill="#004E99" fill-rule="nonzero" d="M60.02 42.787H2.08c-.737 0-1.334-.597-1.334-1.335v-9.34c0-.737.597-1.334 1.334-1.334h62.713c.737 0 1.334.597 1.334 1.334v4.567c0 3.367-2.74 6.108-6.107 6.108zM3.415 40.118H60.02c1.896 0 3.439-1.543 3.439-3.439v-3.232H3.415v6.671z" transform="matrix(-1 0 0 1 67 0)"/>
                <path fill="#94C1FF" fill-rule="nonzero" d="M42.11 10.763h9.472c7.297 0 13.21 5.915 13.21 13.211v8.138H42.11V10.763z" transform="matrix(-1 0 0 1 67 0)"/>
                <path fill="#004E99" fill-rule="nonzero" d="M64.793 33.447H42.11c-.737 0-1.335-.597-1.335-1.335V10.763c0-.737.598-1.335 1.335-1.335h9.472c8.02 0 14.545 6.526 14.545 14.547v8.137c0 .738-.597 1.335-1.334 1.335zm-21.35-2.67H63.46v-6.802c0-6.55-5.329-11.877-11.877-11.877h-8.138v18.68z" transform="matrix(-1 0 0 1 67 0)"/>
                <path fill="#2A8EE6" d="M60.79 24.106H46.113v-8.005h6.671c4.422 0 8.006 3.584 8.006 8.005z" transform="matrix(-1 0 0 1 67 0)"/>
                <path fill="#004E99" fill-rule="nonzero" d="M60.79 25.44H46.113c-.737 0-1.335-.596-1.335-1.334v-8.005c0-.738.598-1.335 1.335-1.335h6.671c5.15 0 9.34 4.19 9.34 9.34 0 .738-.597 1.335-1.334 1.335zm-13.343-2.668H59.32c-.619-3.042-3.315-5.337-6.537-5.337h-5.337v5.337z" transform="matrix(-1 0 0 1 67 0)"/>
                <path fill="#94C1FF" fill-rule="nonzero" d="M18.092 41.452c0 2.948-2.39 5.338-5.337 5.338-2.948 0-5.337-2.39-5.337-5.338 0-2.947 2.389-5.337 5.337-5.337s5.337 2.39 5.337 5.337z" transform="matrix(-1 0 0 1 67 0)"/>
                <path fill="#004E99" fill-rule="nonzero" d="M12.755 48.124c-3.679 0-6.672-2.993-6.672-6.672 0-3.678 2.993-6.671 6.672-6.671 3.678 0 6.671 2.993 6.671 6.671 0 3.679-2.993 6.672-6.671 6.672zm0-10.674c-2.208 0-4.003 1.795-4.003 4.002s1.795 4.003 4.003 4.003c2.207 0 4.003-1.796 4.003-4.003s-1.796-4.002-4.003-4.002z" transform="matrix(-1 0 0 1 67 0)"/>
                <path fill="#94C1FF" fill-rule="nonzero" d="M59.456 41.452c0 2.948-2.39 5.338-5.338 5.338-2.947 0-5.337-2.39-5.337-5.338 0-2.947 2.39-5.337 5.337-5.337 2.948 0 5.338 2.39 5.338 5.337z" transform="matrix(-1 0 0 1 67 0)"/>
                <path fill="#004E99" fill-rule="nonzero" d="M54.118 48.124c-3.678 0-6.671-2.993-6.671-6.672 0-3.678 2.993-6.671 6.671-6.671 3.679 0 6.672 2.993 6.672 6.671 0 3.679-2.993 6.672-6.672 6.672zm0-10.674c-2.207 0-4.002 1.795-4.002 4.002s1.795 4.003 4.002 4.003 4.003-1.796 4.003-4.003-1.796-4.002-4.003-4.002z" transform="matrix(-1 0 0 1 67 0)"/>
                <path fill="#FFF" fill-rule="nonzero" d="M60.79 29.444h-4.003c-.736 0-1.334-.597-1.334-1.335 0-.737.598-1.334 1.334-1.334h4.003c.737 0 1.334.597 1.334 1.334 0 .738-.597 1.335-1.334 1.335z" transform="matrix(-1 0 0 1 67 0)"/>
            </g>
        </g>
        <g stroke="#004E99" stroke-width="6" transform="translate(-1 -25) translate(30 53)">
            <circle cx="58" cy="58" r="55" fill="#D2E7FF"/>
            <path stroke-linecap="round" stroke-linejoin="round" d="M41.5 56L55 69.5 81 44"/>
        </g>
        <g transform="translate(-1 -25) translate(124 107)">
            <rect width="57" height="39" fill="#004E99" rx="5"/>
            <g>
                <path fill="#0E65E5" fill-rule="nonzero" d="M49.858 34.071H3.39C2 34.071.873 32.944.873 31.554V5.164C.873 3.773 2 2.645 3.39 2.645h46.468c1.39 0 2.517 1.127 2.517 2.517v26.39c0 1.391-1.127 2.518-2.517 2.518z" transform="translate(2 2)"/>
                <path fill="#004E99" fill-rule="nonzero" d="M49.858 34.944H3.39c-1.87 0-3.39-1.52-3.39-3.39V5.164c0-1.87 1.52-3.39 3.39-3.39h46.468c1.869 0 3.39 1.52 3.39 3.39v26.39c0 1.87-1.521 3.39-3.39 3.39zM3.39 3.52c-.907 0-1.644.737-1.644 1.644v26.39c0 .908.737 1.645 1.644 1.645h46.468c.906 0 1.644-.737 1.644-1.644V5.164c0-.908-.738-1.645-1.644-1.645H3.39z" transform="translate(2 2)"/>
                <path fill="#94C1FF" fill-rule="nonzero" d="M49.858 32.325H3.39C2 32.325.873 31.2.873 29.808V3.418C.873 2.026 2 .9 3.39.9h46.468c1.39 0 2.517 1.127 2.517 2.517v26.39c0 1.392-1.127 2.518-2.517 2.518z" transform="translate(2 2)"/>
                <path fill="#004E99" fill-rule="nonzero" d="M49.858 33.198H3.39c-1.87 0-3.39-1.52-3.39-3.39V3.418C0 1.547 1.52.027 3.39.027h46.468c1.869 0 3.39 1.52 3.39 3.39v26.39c0 1.87-1.521 3.39-3.39 3.39zM3.39 1.773c-.907 0-1.644.737-1.644 1.644v26.39c0 .908.737 1.645 1.644 1.645h46.468c.906 0 1.644-.737 1.644-1.644V3.418c0-.908-.738-1.645-1.644-1.645H3.39z" transform="translate(2 2)"/>
                <path fill="#D7E9FF" fill-rule="nonzero" d="M0.873 6.138L52.375 6.138 52.375 13.994 0.873 13.994z" transform="translate(2 2)"/>
                <path fill="#004E99" fill-rule="nonzero" d="M52.375 14.867H.873c-.482 0-.873-.39-.873-.873V6.138c0-.483.39-.873.873-.873h51.502c.482 0 .873.39.873.873v7.856c0 .483-.39.873-.873.873zM1.745 13.12h49.757v-6.11H1.746v6.11z" transform="translate(2 2)"/>
                <path fill="#2A8EE6" d="M40.154 24.469c0 2.41-1.954 4.364-4.364 4.364s-4.365-1.954-4.365-4.364 1.954-4.365 4.365-4.365c2.41 0 4.364 1.954 4.364 4.365z" transform="translate(2 2)"/>
                <path fill="#004E99" fill-rule="nonzero" d="M35.79 29.707c-2.888 0-5.238-2.35-5.238-5.238 0-2.888 2.35-5.238 5.238-5.238 2.888 0 5.237 2.35 5.237 5.238 0 2.888-2.35 5.238-5.237 5.238zm0-8.73c-1.926 0-3.492 1.566-3.492 3.492 0 1.925 1.566 3.492 3.492 3.492 1.925 0 3.491-1.567 3.491-3.492 0-1.926-1.566-3.492-3.491-3.492z" transform="translate(2 2)"/>
                <path fill="#D7E9FF" fill-rule="nonzero" d="M46.265 24.469c0 2.41-1.954 4.364-4.365 4.364-2.41 0-4.364-1.954-4.364-4.364s1.953-4.365 4.364-4.365c2.41 0 4.365 1.954 4.365 4.365z" transform="translate(2 2)"/>
                <path fill="#004E99" fill-rule="nonzero" d="M41.9 29.707c-2.888 0-5.238-2.35-5.238-5.238 0-2.888 2.35-5.238 5.238-5.238 2.888 0 5.238 2.35 5.238 5.238 0 2.888-2.35 5.238-5.238 5.238zm0-8.73c-1.925 0-3.491 1.566-3.491 3.492 0 1.925 1.566 3.492 3.491 3.492s3.492-1.567 3.492-3.492c0-1.926-1.567-3.492-3.492-3.492z" transform="translate(2 2)"/>
            </g>
        </g>
        <g transform="translate(-1 -25) translate(25 152)">
            <rect width="148.5" height="38.7" x="-2.25" y="-2.25" fill="#E7131A" stroke="#FFF" stroke-width="4.5" rx="3.6"/>
            <text fill="#FFF" font-family="Merel-Bold, Merel" font-size="10" font-weight="bold">
                <tspan x="38.465" y="21">PLACE ORDER</tspan>
            </text>
        </g>
    </g>
</svg>
