<svg xmlns="http://www.w3.org/2000/svg" width="21" height="21" viewBox="0 0 21 21">
    <path fill="#004E99" fill-rule="evenodd" d="M8.233 14.45c-3.285 0-5.948-2.713-5.948-6.06 0-3.348 2.663-6.062 5.948-6.062 3.285 0 5.948 2.714 5.948 6.061 0 3.348-2.663 6.062-5.948 6.062m12.238 3.393l-5.133-5.23c.713-1.241 1.129-2.682 1.129-4.225C16.467 3.756 12.78 0 8.233 0 3.686 0 0 3.756 0 8.39c0 4.633 3.686 8.389 8.233 8.389 1.718 0 3.312-.538 4.63-1.454l5.04 5.136c.706.719 1.862.719 2.568 0 .705-.72.705-1.897 0-2.617"/>
</svg>
