<svg xmlns="http://www.w3.org/2000/svg" width="24" height="28" viewBox="0 0 24 28">
    <g fill="#FFF">
        <path d="M11.775 4.564L7.258.035 6.101 1.191l1.907 1.907C3.342 4.015-.018 8.115 0 12.87h1.634C1.604 8.323 5.26 4.61 9.806 4.564h1.97zM23.935 14.44h-1.634c.03 4.547-3.625 8.261-8.172 8.306H12.16l4.517 4.529 1.157-1.155-1.903-1.908c4.665-.919 8.022-5.018 8.004-9.772z"/>
        <path d="M14.832 12.184c-.648 0-1.176-.528-1.176-1.176 0-2.298-1.87-4.168-4.168-4.168S5.32 8.71 5.32 11.008c0 2.54.99 4.93 2.786 6.726 1.796 1.797 4.185 2.786 6.726 2.786 2.298 0 4.168-1.87 4.168-4.168 0-2.299-1.87-4.168-4.168-4.168z"/>
    </g>
</svg>
