<svg xmlns="http://www.w3.org/2000/svg" width="26" height="24" viewBox="0 0 26 24">
    <g fill="none" fill-rule="evenodd">
        <g fill="#5E5E5E" fill-rule="nonzero">
            <g>
                <g>
                    <g>
                        <path d="M12.591 23.136c-.29 0-.567-.12-.764-.33l-9.85-10.47C-.66 9.535-.66 4.973 1.977 2.171c2.594-2.755 7.147-2.755 9.738 0l.876.933.876-.933C14.765.791 16.495.033 18.337.033s3.573.759 4.869 2.138c2.635 2.802 2.635 7.364 0 10.165l-9.85 10.47c-.198.21-.475.33-.765.33zM6.845 2.134c-1.258 0-2.445.525-3.34 1.476-1.89 2.008-1.89 5.278 0 7.286l9.086 9.658 9.086-9.658c1.89-2.008 1.89-5.278 0-7.286-.895-.951-2.082-1.476-3.34-1.476s-2.444.523-3.339 1.476l-1.642 1.745c-.397.423-1.132.423-1.531 0L10.182 3.61c-.894-.953-2.081-1.476-3.337-1.476z" transform="translate(-34 -395) translate(1 228.74) translate(0 17.26) translate(33 149)"/>
                    </g>
                </g>
            </g>
        </g>
    </g>
</svg>
