<svg xmlns="http://www.w3.org/2000/svg" width="26" height="24" viewBox="0 0 26 24">
    <g fill="none" fill-rule="evenodd">
        <g fill="#ED1C24" fill-rule="nonzero">
            <g>
                <g>
                    <path d="M18.337.033c1.842 0 3.573.759 4.869 2.138 2.635 2.802 2.635 7.364 0 10.165l-9.85 10.47c-.198.21-.475.33-.765.33-.29 0-.567-.12-.764-.33l-9.85-10.47C-.66 9.535-.66 4.973 1.977 2.171c2.594-2.755 7.147-2.755 9.738 0l.876.933.876-.933C14.765.791 16.495.033 18.337.033z" transform="translate(-34 -181) translate(2 32) translate(32 149)"/>
                </g>
            </g>
        </g>
    </g>
</svg>
